<svg width="160" height="48" viewBox="0 0 160 48" fill="none" xmlns="http://www.w3.org/2000/svg">
<g clip-path="url(#clip0_572_3098)">
<path d="M0 9H11.73C13.9643 9 15.64 9.56839 16.8813 10.5157C18.2467 11.6525 18.9915 13.2945 18.9915 15.3155C18.9915 17.6522 18.0605 19.1047 16.1986 19.9889V20.1152C18.6812 20.9362 20.1086 23.2098 20.1086 25.9254C20.1086 28.5148 19.1156 30.5357 17.502 31.7988C16.1366 32.8093 14.3988 33.2514 12.0403 33.2514H0V9ZM10.5508 18.4732C11.7921 18.4732 12.7231 17.7785 12.7231 16.3259C12.7231 14.9365 11.7921 14.2418 10.4888 14.2418H6.45462V18.41H10.5508V18.4732ZM11.1094 27.8832C12.5369 27.8832 13.5919 26.999 13.5919 25.4202C13.5919 23.715 12.4748 22.9572 11.1094 22.9572H6.51669V27.9464H11.1094V27.8832Z" fill="#9CA2AE"/>
<path d="M21.1631 9H27.3074V33.3145H21.1631V9Z" fill="#9CA2AE"/>
<path d="M28.5488 24.6622C28.5488 19.1677 32.0244 15.5047 37.4239 15.5047C42.8235 15.5047 46.237 19.2309 46.237 24.6622C46.237 30.1566 42.8235 33.8196 37.4239 33.8196C32.0244 33.8196 28.5488 30.1566 28.5488 24.6622ZM40.0927 24.6622C40.0927 21.6307 39.1617 19.7361 37.2998 19.7361C35.4379 19.7361 34.569 21.6307 34.569 24.6622C34.569 27.6936 35.4379 29.6514 37.2998 29.6514C39.1617 29.5882 40.0927 27.6936 40.0927 24.6622Z" fill="#9CA2AE"/>
<path d="M46.9199 24.6622C46.9199 19.1677 50.3955 15.5047 55.795 15.5047C61.1946 15.5047 64.546 19.1677 64.546 24.6622C64.546 30.1566 61.1325 33.8196 55.733 33.8196C50.3955 33.8196 46.9199 30.1566 46.9199 24.6622ZM58.4638 24.6622C58.4638 21.6307 57.5328 19.7361 55.6709 19.7361C53.809 19.7361 52.9401 21.6307 52.9401 24.6622C52.9401 27.6936 53.809 29.6514 55.6709 29.6514C57.5328 29.5882 58.4638 27.6936 58.4638 24.6622Z" fill="#9CA2AE"/>
<path d="M65.7881 15.947H71.498V18.5363H71.6221C72.7392 16.5154 74.2908 15.4418 76.7734 15.4418C78.9456 15.4418 80.5593 16.5154 81.3661 18.41H81.4902C82.8556 16.1365 84.6555 15.4418 86.7656 15.4418C90.7377 15.4418 92.4134 18.41 92.4134 22.3888V33.2513H86.4553V23.4624C86.4553 21.6941 85.8968 20.5573 84.4072 20.5573C82.9177 20.5573 82.1729 21.9467 82.1729 23.8413V33.2513H76.2148V23.4624C76.2148 21.6941 75.6562 20.5573 74.1667 20.5573C72.6772 20.5573 71.9324 21.9467 71.9324 23.8413V33.2513H65.7881V15.947Z" fill="#9CA2AE"/>
<path d="M99.9223 30.9778H99.8602V33.2514H94.1504V9H100.108V17.7153H100.233C101.35 16.1996 102.901 15.3786 105.074 15.3786C109.356 15.3786 111.838 19.2942 111.838 24.536C111.838 30.4094 109.17 33.8198 104.701 33.8198C102.839 33.8198 100.915 32.9356 99.9223 30.9778ZM105.694 24.4729C105.694 21.6941 104.701 19.8626 102.901 19.8626C101.039 19.8626 99.9223 21.6941 99.9223 24.4729C99.9223 27.2517 101.101 29.0832 102.901 29.0832C104.701 29.0832 105.694 27.3148 105.694 24.4729Z" fill="#9CA2AE"/>
<path d="M112.521 24.5993C112.521 19.168 116.059 15.4418 121.148 15.4418C123.693 15.4418 125.617 16.2628 127.106 17.7154C129.092 19.6732 129.961 22.7046 129.899 26.2413H118.48C118.728 28.3885 119.721 29.5253 121.521 29.5253C122.576 29.5253 123.507 29.0201 123.879 27.8833H129.651C128.658 31.862 125.617 33.8198 121.335 33.8198C116.059 33.7567 112.521 30.0937 112.521 24.5993ZM118.48 22.7678H123.941C123.817 20.6837 122.7 19.61 121.272 19.61C119.597 19.5469 118.666 20.7468 118.48 22.7678Z" fill="#9CA2AE"/>
<path d="M136.664 18.9149H136.788C138.029 16.5151 139.643 15.5677 141.691 15.5677C142.188 15.5677 142.498 15.6309 142.684 15.7572V21.0622H142.56C139.022 20.4306 136.974 22.1358 136.974 26.0514V33.3142H130.954V15.9467H136.664V18.9149Z" fill="#9CA2AE"/>
<path d="M143.305 33.3147H149.077C149.326 34.0726 150.07 34.7673 151.498 34.7673C153.422 34.7673 154.104 33.5673 154.104 31.7358V30.4727H153.98C153.049 31.6095 151.746 32.4305 149.884 32.4305C146.222 32.4305 142.995 29.6517 142.995 24.2204C142.995 19.2312 145.602 15.3788 149.574 15.3788C151.87 15.3788 153.236 16.3261 154.167 17.7786H154.291V15.884H160V30.9148C160 33.6936 159.07 35.8409 157.642 37.104C156.153 38.4302 154.042 38.9986 151.622 38.9986C147.029 39.0618 143.864 37.1671 143.305 33.3147ZM154.353 23.9678C154.353 21.8205 153.36 20.0522 151.622 20.0522C149.946 20.0522 148.891 21.5679 148.891 23.9678C148.891 26.3045 149.946 27.9466 151.622 27.9466C153.298 27.9466 154.353 26.2414 154.353 23.9678Z" fill="#9CA2AE"/>
</g>
<defs>
<clipPath id="clip0_572_3098">
<rect width="160" height="48" fill="white"/>
</clipPath>
</defs>
</svg>
