<svg width="122" height="48" viewBox="0 0 122 48" fill="none" xmlns="http://www.w3.org/2000/svg">
<path d="M59.826 14.283C58.9389 14.283 58.4524 14.368 57.737 14.7081C56.4206 15.3033 55.4477 16.2669 54.5892 17.8258L54.303 18.3076L54.3316 17.429C54.3603 16.9472 54.3889 16.0685 54.4175 15.445L54.4461 14.3396H54.2458C54.0169 14.3396 46.4621 15.8418 46.2332 15.9268C46.0901 15.9835 46.0615 16.0402 46.0615 16.4087C46.0615 16.7771 46.0901 16.8338 46.2332 16.8621C46.3191 16.8905 46.6625 16.9472 47.0059 17.0039C47.664 17.1172 47.8643 17.2306 48.1505 17.5991C48.6656 18.2509 48.7515 19.4413 48.7515 24.4013C48.7515 28.4543 48.6656 30.495 48.4653 31.1185C48.2364 31.8837 47.8071 32.2805 47.0631 32.4223C46.8342 32.4789 46.5194 32.5356 46.3763 32.564L46.1188 32.6207L46.0901 33.1308C46.0615 33.4993 46.0901 33.6693 46.176 33.726C46.2332 33.7544 48.8087 33.7827 51.8993 33.7827L57.5367 33.7544L57.5653 33.1592C57.5653 32.8474 57.5653 32.564 57.5367 32.564C57.1074 32.564 55.7625 32.3939 55.5335 32.2805C54.904 32.0255 54.5892 31.4586 54.4461 30.2966C54.303 28.9645 54.1886 25.5917 54.2458 22.8708C54.303 20.0932 54.303 20.0932 54.4747 19.8948C54.8754 19.4697 55.9055 19.1296 56.8499 19.1296C57.5939 19.1296 58.3665 19.328 59.1678 19.6964C59.5684 19.8948 59.9118 20.0082 59.9691 20.0082C60.0835 19.9798 61.915 15.1332 61.915 14.9065C61.915 14.6231 60.8562 14.283 59.826 14.283Z" fill="#9CA2AE"/>
<path d="M46.0882 22.7008C45.6875 19.3563 44.2567 16.9189 41.8816 15.5301C39.2489 13.9996 35.2712 13.9145 32.4382 15.3317C30.3778 16.352 28.718 18.3076 27.974 20.5751C27.2014 22.8992 27.2014 25.9602 27.974 28.3126C28.4605 29.8431 29.1187 30.9485 30.1489 31.9405C31.3794 33.1592 32.9819 33.9245 34.8419 34.1795C35.5001 34.2646 37.5891 34.2646 38.2759 34.1795C38.5907 34.1229 39.163 34.0095 39.5064 33.9245C42.8545 32.9608 45.1438 30.41 45.9165 26.7821C46.1168 25.8751 46.2026 23.7211 46.0882 22.7008ZM37.6177 32.7341C35.5287 33.3576 34.0407 31.3736 33.4684 27.2639C33.268 25.9318 33.2967 22.304 33.4684 20.8018C33.869 17.4857 34.8992 15.8135 36.5303 15.8135C37.2743 15.8135 37.675 15.9835 38.2473 16.5504C39.6209 17.9108 40.2504 20.5184 40.2504 24.5997C40.2504 27.8591 39.907 29.8998 39.1916 31.2886C38.8196 31.9405 38.1614 32.564 37.6177 32.7341Z" fill="#9CA2AE"/>
<path d="M18.6159 9.37962H21.0197C23.7669 9.37962 24.2247 9.4363 25.1977 9.91812C26.5999 10.5983 27.6301 11.9588 28.5458 14.3396C28.9178 15.3032 28.9178 15.3032 29.7191 15.0481L30.2628 14.8781L30.2056 11.3919C30.1769 9.46464 30.1197 7.76408 30.1197 7.62237L30.0625 7.3106L19.5603 7.28226C13.7798 7.28226 8.9436 7.28226 8.80052 7.3106L8.54297 7.36729L8.57158 7.99082L8.6002 8.61436L9.40146 8.69939C10.4316 8.81276 11.0612 9.12453 11.4332 9.6347C12.2631 10.8251 12.4062 12.469 12.4062 20.2065C12.4062 28.4542 12.2345 30.4666 11.4332 31.4869C11.0326 32.0254 10.6892 32.1955 9.74486 32.3655C8.51435 32.5923 8.57158 32.5639 8.57158 33.1874C8.57158 33.5276 8.6002 33.726 8.65743 33.7543C8.80052 33.811 22.2216 33.811 22.3647 33.7543C22.5364 33.6976 22.5364 32.7056 22.3647 32.6206C22.2788 32.5923 21.8496 32.5072 21.3631 32.4222C20.8766 32.3372 20.3615 32.2238 20.1898 32.1671C19.3027 31.7987 18.8162 30.75 18.6445 28.851C18.5015 27.4906 18.4156 24.9681 18.4156 23.1258V21.4252L19.2455 21.4536C20.9911 21.5103 21.8782 21.5953 22.2502 21.7654C23.0515 22.1055 23.681 23.0691 23.9958 24.4296L24.1675 25.1381L24.7971 25.1665L25.4266 25.1948V16.1252L24.7971 16.1535L24.1675 16.1819L23.9958 16.8904C23.6524 18.2792 23.0801 19.1295 22.2216 19.5263C21.8782 19.6963 21.6206 19.7247 20.8194 19.7814C20.2757 19.8097 19.503 19.8381 19.131 19.8381H18.4156V17.599C18.4156 15.3599 18.5301 10.57 18.6159 9.8331V9.37962Z" fill="#9CA2AE"/>
<path d="M113.937 25.3649C113.308 24.0895 112.106 23.2392 109.645 22.2188C107.642 21.3969 106.612 20.8017 106.011 20.1498C105.496 19.6113 105.353 19.1578 105.41 18.3642C105.467 17.6273 105.639 17.1739 106.125 16.6637C106.726 16.0118 107.585 15.7851 108.586 16.0118C110.217 16.3519 111.276 17.4856 112.192 19.8664C112.507 20.7167 112.564 20.745 113.136 20.5183L113.508 20.3766V19.3846C113.508 18.8461 113.48 17.7124 113.451 16.8621L113.394 15.3316L113.108 15.2182C111.591 14.5947 108.729 14.1979 106.869 14.3679C104.752 14.5663 103.178 15.2182 101.976 16.4653C100.774 17.684 100.23 19.1295 100.345 20.8301C100.431 22.2472 100.831 23.2392 101.718 24.1461C102.52 24.9681 103.206 25.3649 105.181 26.1301C108.329 27.3489 109.187 28.0858 109.159 29.5879C109.159 30.8634 108.472 31.7987 107.241 32.2238C106.783 32.3655 105.667 32.3655 105.066 32.2238C103.492 31.827 102.291 30.4666 101.26 27.9724L101.003 27.3205L100.688 27.3489C100.516 27.3489 100.287 27.4056 100.173 27.4622L99.9727 27.5756L100.001 28.681C100.001 29.2762 100.03 30.5516 100.059 31.4869L100.116 33.2158L100.459 33.3575C101.175 33.6693 103.349 34.1228 104.694 34.2645C104.866 34.2928 105.782 34.2928 106.755 34.2645C108.414 34.2361 108.558 34.2361 109.387 34.0094C111.877 33.3575 113.48 31.9971 114.195 29.9281C114.424 29.2762 114.453 29.1061 114.481 28.1425C114.453 26.8387 114.338 26.1868 113.937 25.3649Z" fill="#9CA2AE"/>
<path d="M94.7367 15.0482C92.6477 13.9995 89.414 14.0846 87.0675 15.2183C84.8354 16.2953 83.2901 18.1092 82.4316 20.6601C81.9738 21.9922 81.8307 23.0408 81.8879 24.7697C81.9165 25.8468 81.9738 26.4136 82.0882 26.9238C82.9754 30.8351 85.6653 33.471 89.4427 34.1512C90.2725 34.2929 92.1612 34.2929 92.9911 34.1512C94.193 33.9528 95.5666 33.4143 96.4537 32.8191C97.5125 32.1105 98.5999 31.0335 98.5999 30.6934C98.5999 30.495 98.2279 30.0131 98.0848 30.0131C98.0276 30.0131 97.7128 30.1549 97.4266 30.3533C96.3964 31.0335 95.3949 31.2886 93.9927 31.2886C92.0754 31.2886 90.8735 30.8067 89.643 29.588C89.0993 29.0495 88.8703 28.7661 88.6128 28.2276C88.0118 27.0655 87.6684 25.7051 87.6112 24.1746L87.5826 23.5227L93.22 23.4943L98.8574 23.466L98.8861 23.0975C98.8861 22.8991 98.8861 22.3606 98.8288 21.8788C98.4854 18.5627 97.0832 16.2386 94.7367 15.0482ZM89.0706 21.9355L87.6398 21.9638V21.6521C87.6398 21.482 87.697 21.0285 87.7543 20.6601C88.2408 17.6274 89.3854 15.8135 90.8162 15.8135C92.1326 15.8135 92.9338 17.5991 93.1055 20.8868L93.1628 21.8221L91.8464 21.8788C91.1024 21.8788 89.8433 21.9071 89.0706 21.9355Z" fill="#9CA2AE"/>
<path d="M74.3331 14.7081C73.8753 14.623 73.4746 14.5947 72.6161 14.623C71.2998 14.6797 70.4127 14.8498 69.4111 15.3033C69.0963 15.445 68.8102 15.5867 68.7816 15.5867C68.7529 15.5867 68.7529 13.631 68.7816 11.2219C68.8102 7.8208 68.8102 6.85715 68.7243 6.85715C68.4668 6.85715 60.7117 8.33097 60.6259 8.38765C60.5687 8.44434 60.54 8.61439 60.54 8.84113C60.5687 9.26627 60.5114 9.23793 61.4558 9.43633C61.7419 9.49302 62.0853 9.63473 62.1998 9.71976C62.5146 9.9465 62.7721 10.4283 62.9724 11.1085C63.1155 11.6471 63.1441 12.0439 63.2014 15.7284C63.2586 19.498 63.2586 23.3809 63.1441 30.4666L63.0869 33.4142L63.6306 33.5276C64.4319 33.6976 66.7498 34.0944 67.4938 34.1795C68.6099 34.2928 71.1853 34.2645 72.0152 34.1511C75.5922 33.6126 78.2822 31.5719 79.5413 28.4259C79.8847 27.604 80.1995 26.3002 80.3139 25.3649C80.457 24.2595 80.3712 22.0205 80.1709 21.1135C79.4268 17.684 77.252 15.3033 74.3331 14.7081ZM68.896 32.4789C68.8102 32.2238 68.6957 23.3809 68.7243 19.8664L68.7529 17.1172L69.268 16.9755C69.6114 16.8904 70.0121 16.8338 70.4699 16.8338C71.1281 16.8338 71.1853 16.8621 71.729 17.1172C73.0454 17.7691 73.9325 19.3563 74.3617 21.7654C74.5048 22.6724 74.5334 25.1098 74.3904 26.1868C74.047 28.8227 73.1885 30.9484 72.0152 31.9687C71.5573 32.3655 71.1281 32.5923 70.5844 32.7057C70.1838 32.7907 70.0693 32.7907 69.3253 32.734C69.0391 32.6773 68.9819 32.649 68.896 32.4789Z" fill="#9CA2AE"/>
</svg>
